<svg id="Layer_1" data-name="Layer 1" xmlns="http://www.w3.org/2000/svg" viewBox="0 0 419.01 466.45"><defs><style>.cls-1{fill:#6e00ff;}.cls-2{fill:#f2f2f2;}</style></defs><path class="cls-1" d="M763.91,569a75.32,75.32,0,1,1-75.31-75.31A75.19,75.19,0,0,1,763.91,569Z" transform="translate(-491.99 -177.83)"/><path class="cls-2" d="M733.47,611.38q-.53-3.55-1.4-7.31-.77-3.29-1.77-6.69A145.7,145.7,0,0,0,723.36,579c-1.23-2.74-2.57-5.48-4-8.23q-1.89-3.63-4-7.25t-4.29-7.06q-2.5-3.9-5.13-7.57a144.22,144.22,0,0,0-12.48-15.21c-1.62-1.72-3.26-3.35-4.9-4.88-1.88-1.75-3.76-3.38-5.64-4.87-12.26-9.73-23.23-12.66-30.91-8.23s-10.63,15.4-8.33,30.89q.53,3.56,1.4,7.31c.5,2.19,1.1,4.43,1.77,6.69A145.13,145.13,0,0,0,653.83,579c1.23,2.74,2.57,5.48,4,8.23,1.25,2.42,2.58,4.84,4,7.25s2.82,4.76,4.29,7.06q2.5,3.9,5.13,7.57a145.42,145.42,0,0,0,12.47,15.21q2.45,2.58,4.92,4.88c1.87,1.76,3.75,3.38,5.62,4.87a56.49,56.49,0,0,0,12.91,8,75,75,0,0,0,26.26-12.47C734.48,624.53,734.52,618.42,733.47,611.38Zm-6.9,17c-.9,3.87-2.54,6.52-4.89,7.87s-5.47,1.46-9.26.3c-4.12-1.25-8.92-4-13.89-8-1.67-1.33-3.35-2.78-5-4.33s-3.28-3.15-4.91-4.88c-2.79-3-5.56-6.2-8.26-9.67-1.8-2.32-3.58-4.75-5.31-7.27-2.51-3.65-4.93-7.49-7.24-11.48s-4.42-8-6.32-12c-1.32-2.76-2.53-5.51-3.64-8.23-1.66-4.07-3.09-8.09-4.25-12-.68-2.27-1.27-4.51-1.77-6.69s-.92-4.4-1.23-6.52c-.94-6.28-.92-11.81,0-16,.89-3.86,2.54-6.51,4.89-7.87a8.8,8.8,0,0,1,4.46-1.1,16.65,16.65,0,0,1,4.8.8c4.12,1.26,8.92,4,13.89,8,1.67,1.33,3.35,2.78,5,4.34s3.29,3.15,4.91,4.87c2.8,3,5.57,6.2,8.27,9.68,1.8,2.32,3.58,4.74,5.31,7.26,2.5,3.65,4.93,7.49,7.24,11.48s4.42,8,6.32,12c1.32,2.76,2.53,5.51,3.64,8.23,1.66,4.08,3.08,8.09,4.25,12q1,3.42,1.77,6.69c.5,2.23.92,4.4,1.23,6.52C727.56,618.68,727.54,624.21,726.57,628.4Z" transform="translate(-491.99 -177.83)"/><path class="cls-2" d="M739.1,556.31c-2.23-.88-4.58-1.69-7-2.44q-3.23-1-6.69-1.81a145.15,145.15,0,0,0-19.4-3.2c-3-.3-6-.51-9.12-.65-2.72-.13-5.48-.19-8.26-.19s-5.55.06-8.27.19c-3.09.13-6.14.36-9.12.65a145.3,145.3,0,0,0-19.41,3.2q-3.45.83-6.68,1.81c-2.45.75-4.8,1.56-7,2.44-14.56,5.75-22.59,13.8-22.59,22.66s8,16.91,22.59,22.66q3.35,1.32,7,2.44c2.16.66,4.39,1.27,6.69,1.81a145,145,0,0,0,19.41,3.2c3,.3,6,.52,9.12.66q4.08.18,8.27.18t8.26-.18q4.64-.21,9.12-.66a144,144,0,0,0,19.41-3.2q3.45-.82,6.68-1.81c2.45-.74,4.8-1.56,7-2.44,14.56-5.75,22.58-13.8,22.58-22.66S753.66,562.06,739.1,556.31Zm11.29,30.83c-3.14,2.94-7.93,5.72-13.83,8.05-2,.78-4.08,1.52-6.26,2.19s-4.38,1.26-6.68,1.81c-4,.94-8.15,1.72-12.51,2.32-2.91.4-5.9.72-8.94,1-4.42.35-9,.53-13.57.53s-9.16-.18-13.58-.53c-3-.24-6-.56-8.94-1-4.36-.6-8.55-1.38-12.51-2.32q-3.47-.83-6.68-1.81t-6.26-2.19c-5.9-2.33-10.69-5.11-13.83-8.05-2.9-2.71-4.37-5.46-4.37-8.17s1.47-5.46,4.37-8.17c3.14-2.94,7.92-5.72,13.83-8,2-.78,4.08-1.52,6.26-2.19s4.37-1.26,6.68-1.81c4-.94,8.15-1.72,12.51-2.32,2.91-.4,5.9-.72,8.94-1,4.42-.35,9-.53,13.58-.53s9.15.18,13.57.53c3,.24,6,.56,8.94,1,4.36.6,8.55,1.38,12.51,2.32q3.45.82,6.68,1.81c2.18.67,4.27,1.41,6.26,2.19,5.9,2.33,10.69,5.11,13.83,8,2.9,2.71,4.37,5.46,4.37,8.17S753.29,584.43,750.39,587.14Z" transform="translate(-491.99 -177.83)"/><path class="cls-2" d="M725.14,515.67c-7.68-4.43-18.65-1.5-30.92,8.23-1.87,1.49-3.75,3.12-5.62,4.87-1.65,1.53-3.29,3.17-4.92,4.88a146.47,146.47,0,0,0-12.47,15.21q-2.62,3.66-5.13,7.57-2.21,3.45-4.29,7.06c-1.39,2.41-2.72,4.83-4,7.25-1.42,2.75-2.76,5.5-4,8.23a145.7,145.7,0,0,0-6.94,18.41c-.67,2.27-1.27,4.5-1.77,6.69q-.87,3.75-1.4,7.31c-1.05,7-1,13.15.07,18.13A75,75,0,0,0,670.06,642a56.24,56.24,0,0,0,12.9-8c1.88-1.49,3.76-3.12,5.64-4.87q2.46-2.29,4.91-4.88A145.42,145.42,0,0,0,706,609.08q2.63-3.66,5.13-7.57,2.21-3.45,4.29-7.06t4-7.25q2.13-4.12,4-8.23a147.15,147.15,0,0,0,6.93-18.41q1-3.4,1.77-6.69.87-3.75,1.4-7.31C735.77,531.07,732.81,520.1,725.14,515.67Zm-1.52,43.08c-1.17,3.9-2.59,7.92-4.25,12-1.11,2.72-2.32,5.47-3.64,8.23-1.9,4-4,8-6.32,12s-4.73,7.83-7.24,11.48q-2.61,3.78-5.31,7.27c-2.7,3.47-5.47,6.71-8.27,9.67q-2.43,2.58-4.91,4.88c-1.67,1.55-3.35,3-5,4.33-5,4-9.77,6.69-13.89,8-3.79,1.16-6.91,1.06-9.26-.3s-4-4-4.89-7.87c-1-4.19-1-9.72,0-16q.46-3.18,1.23-6.52c.5-2.18,1.09-4.42,1.77-6.69,1.16-3.9,2.59-7.92,4.25-12,1.11-2.72,2.32-5.47,3.64-8.23,1.9-4,4-8,6.32-12s4.73-7.83,7.24-11.48c1.74-2.52,3.51-5,5.31-7.26,2.7-3.48,5.47-6.72,8.26-9.68q2.45-2.6,4.91-4.88c1.68-1.55,3.35-3,5-4.33,5-3.94,9.77-6.69,13.89-8a16.65,16.65,0,0,1,4.8-.8,8.8,8.8,0,0,1,4.46,1.1c2.35,1.36,4,4,4.89,7.87,1,4.19,1,9.72,0,16-.31,2.12-.73,4.29-1.24,6.52S724.3,556.48,723.62,558.75Z" transform="translate(-491.99 -177.83)"/><circle class="cls-2" cx="196.61" cy="401.14" r="13.74"/><path class="cls-1" d="M836.26,326.75c-23.06,0-47.56,7.14-47.56,20.38v61.15c0,13.38,23.93,20.38,47.56,20.38s47.56-7,47.56-20.38V347.13C883.82,333.89,859.32,326.75,836.26,326.75ZM877,408.28c0,6.42-16.74,13.59-40.77,13.59s-40.76-7.16-40.76-13.59v-9.53c8.88,6.24,25.14,9.53,40.76,9.53S868.15,405,877,398.75Zm0-20.39c0,5.68-15.51,13.59-40.77,13.59s-40.76-7.91-40.76-13.59v-9.52c8.88,6.24,25.14,9.52,40.76,9.52s31.89-3.28,40.77-9.52Zm0-20.38c0,5.68-15.51,13.59-40.77,13.59s-40.76-7.91-40.76-13.59V358c8.88,6.23,25.14,9.52,40.76,9.52S868.15,364.22,877,358Zm-40.77-6.79c-25.25,0-40.76-7.92-40.76-13.59s15.51-13.59,40.76-13.59S877,341.46,877,347.13,861.52,360.72,836.26,360.72Z" transform="translate(-491.99 -177.83)"/><path class="cls-1" d="M837.32,449.17l-1-.17c-6-1-6.85-2.52-6.85-3.35,0-1.36,2.71-3.4,6.8-3.4s6.67,1.91,6.8,3.28a3.34,3.34,0,0,0,3.7,3.06,3.4,3.4,0,0,0,3.06-3.71c-.51-5.38-6.34-9.43-13.57-9.43-7.62,0-13.59,4.47-13.59,10.19,0,5.32,4.22,8.7,12.55,10.06l.55-3.35.45,3.52c5.65.93,6.83,2.35,6.83,3.36,0,1.36-2.71,3.4-6.8,3.4s-6.67-1.91-6.8-3.29a3.34,3.34,0,0,0-3.7-3,3.38,3.38,0,0,0-3.06,3.7c.51,5.38,6.34,9.44,13.57,9.44,7.62,0,13.59-4.48,13.59-10.2C849.85,453.92,845.64,450.54,837.32,449.17Z" transform="translate(-491.99 -177.83)"/><path class="cls-1" d="M883.82,445.65a10.21,10.21,0,0,0-10.19-10.2h-6.79a10.21,10.21,0,0,0-10.19,10.2v13.58a10.21,10.21,0,0,0,10.19,10.2h6.79a10.09,10.09,0,0,0,4.36-1l0,0a3.43,3.43,0,0,0,2.41,1,3.4,3.4,0,0,0,2.39-5.8l0,0a10,10,0,0,0,1-4.37V445.65ZM877,457.83l-1-1a3.39,3.39,0,0,0-4.8,4.8l1,1h-5.38a3.4,3.4,0,0,1-3.4-3.4V445.65a3.4,3.4,0,0,1,3.4-3.4h6.79a3.4,3.4,0,0,1,3.4,3.4Z" transform="translate(-491.99 -177.83)"/><path class="cls-1" d="M907.6,462.63H897.41V438.85a3.4,3.4,0,1,0-6.79,0V466a3.4,3.4,0,0,0,3.39,3.4H907.6a3.4,3.4,0,0,0,0-6.8Z" transform="translate(-491.99 -177.83)"/><path class="cls-1" d="M814,449.4a3.39,3.39,0,0,0-4.56,1.52l-3.76,7.52-3.76-7.52a3.4,3.4,0,1,0-6.08,3l6,12.08-6,12.06a3.39,3.39,0,0,0,1.52,4.55,3.32,3.32,0,0,0,1.51.36,3.41,3.41,0,0,0,3.05-1.88L815.53,454A3.41,3.41,0,0,0,814,449.4Z" transform="translate(-491.99 -177.83)"/><path class="cls-1" d="M786.38,435.63a3.38,3.38,0,0,0-3.79,1.18l-7.47,10-7.48-10a3.4,3.4,0,0,0-6.11,2V466a3.4,3.4,0,1,0,6.79,0V449l4.08,5.44a3.52,3.52,0,0,0,5.43,0l4.08-5.44v17a3.4,3.4,0,1,0,6.79,0V438.85A3.39,3.39,0,0,0,786.38,435.63Z" transform="translate(-491.99 -177.83)"/><path class="cls-1" d="M657.5,371a2.3,2.3,0,0,1-2.31-2.31V361.8a2.31,2.31,0,1,1,4.62,0v6.86A2.31,2.31,0,0,1,657.5,371Z" transform="translate(-491.99 -177.83)"/><path class="cls-1" d="M657.5,428H539.66a2.3,2.3,0,0,1-2.31-2.31V326.33a2.31,2.31,0,0,1,4.62,0v97.05H655.19V407.74a2.31,2.31,0,1,1,4.62,0v17.95A2.31,2.31,0,0,1,657.5,428Z" transform="translate(-491.99 -177.83)"/><path class="cls-1" d="M657.5,393.87a2.3,2.3,0,0,1-2.31-2.31v-6.72a2.31,2.31,0,1,1,4.62,0v6.72A2.31,2.31,0,0,1,657.5,393.87Z" transform="translate(-491.99 -177.83)"/><path class="cls-1" d="M657.5,347.94a2.31,2.31,0,0,1-2.31-2.31V305.34l-34.46-34.46H542v20.79a2.31,2.31,0,1,1-4.62,0v-23.1a2.3,2.3,0,0,1,2.31-2.31h82a2.33,2.33,0,0,1,1.64.67l35.81,35.82a2.32,2.32,0,0,1,.68,1.63v41.25A2.32,2.32,0,0,1,657.5,347.94Z" transform="translate(-491.99 -177.83)"/><path class="cls-1" d="M657.5,306.69H621.68a2.31,2.31,0,0,1-2.31-2.31V268.57a2.31,2.31,0,0,1,4.62,0v33.5H657.5a2.31,2.31,0,0,1,0,4.62Z" transform="translate(-491.99 -177.83)"/><path class="cls-1" d="M614.29,394a2.3,2.3,0,0,1-2.31-2.31,2.28,2.28,0,0,1,.68-1.63l11.76-11.77-11.76-11.76a2.31,2.31,0,0,1,3.06-3.46,1.89,1.89,0,0,1,.2.2l13.4,13.41a2.29,2.29,0,0,1,0,3.26l-13.4,13.4A2.26,2.26,0,0,1,614.29,394Z" transform="translate(-491.99 -177.83)"/><path class="cls-1" d="M582.87,394a2.31,2.31,0,0,1-1.64-.67L567.83,380a2.32,2.32,0,0,1,0-3.27l13.4-13.4a2.31,2.31,0,1,1,3.33,3.21l-.06.05-11.76,11.77,11.76,11.77a2.31,2.31,0,0,1,0,3.26A2.28,2.28,0,0,1,582.87,394Z" transform="translate(-491.99 -177.83)"/><path class="cls-1" d="M593.38,404.89a2.31,2.31,0,0,1-2.32-2.3,2,2,0,0,1,.06-.49l10.39-48.52a2.31,2.31,0,1,1,4.55.83l0,.13-10.4,48.52A2.29,2.29,0,0,1,593.38,404.89Z" transform="translate(-491.99 -177.83)"/><path class="cls-1" d="M584.71,328.64H513.08a2.31,2.31,0,0,1-2.31-2.31V291.67a2.32,2.32,0,0,1,2.31-2.31h71.63a2.31,2.31,0,0,1,2.31,2.31v34.66A2.3,2.3,0,0,1,584.71,328.64ZM515.4,324h67V294h-67Z" transform="translate(-491.99 -177.83)"/><path class="cls-1" d="M528.67,301.84h1.82v9.43c0,3.74-1.85,4.89-4.27,4.89a5.82,5.82,0,0,1-1.94-.33l.27-1.49a4.18,4.18,0,0,0,1.52.28c1.64,0,2.6-.74,2.6-3.49Z" transform="translate(-491.99 -177.83)"/><path class="cls-1" d="M526.22,316.45a6.22,6.22,0,0,1-2.05-.35.3.3,0,0,1-.18-.32l.28-1.49a.26.26,0,0,1,.14-.2.31.31,0,0,1,.25,0,4,4,0,0,0,1.41.25c1.43,0,2.32-.54,2.32-3.2v-9.29a.28.28,0,0,1,.28-.29h1.82a.29.29,0,0,1,.29.29h0v9.43c0,3.44-1.54,5.18-4.56,5.18Zm-1.61-.81a5.85,5.85,0,0,0,1.61.23c2.71,0,4-1.46,4-4.6v-9.14H529v9c0,2.65-.87,3.78-2.89,3.78a4.8,4.8,0,0,1-1.3-.18Z" transform="translate(-491.99 -177.83)"/><path class="cls-1" d="M538.17,311.5l-1.47,4.44h-1.88l4.79-14.1h2.19l4.81,14.1h-1.94l-1.51-4.44Zm4.62-1.42L541.4,306c-.31-.93-.52-1.76-.73-2.58h0c-.21.84-.44,1.7-.71,2.55l-1.39,4.07Z" transform="translate(-491.99 -177.83)"/><path class="cls-1" d="M546.61,316.22h-1.94a.25.25,0,0,1-.27-.19L543,311.79h-4.57L537,316a.3.3,0,0,1-.28.19h-1.88a.28.28,0,0,1-.27-.38l4.78-14.09a.29.29,0,0,1,.28-.2h2.19a.3.3,0,0,1,.28.19l4.81,14.1a.3.3,0,0,1-.19.37h-.1Zm-1.73-.57h1.33l-4.62-13.52h-1.78l-4.59,13.52h1.26l1.4-4.24a.28.28,0,0,1,.28-.19h5a.28.28,0,0,1,.28.19Zm-2.1-5.28h-4.24a.31.31,0,0,1-.23-.12.3.3,0,0,1,0-.26l1.39-4.08c.23-.73.46-1.54.69-2.53a.33.33,0,0,1,.44-.16.31.31,0,0,1,.16.16l0,.14c.19.76.4,1.55.69,2.41l1.39,4.06a.3.3,0,0,1,0,.26.28.28,0,0,1-.25.12Zm-3.84-.58h3.44l-1.24-3.67c-.2-.56-.35-1.09-.49-1.6-.15.57-.3,1.09-.46,1.57Z" transform="translate(-491.99 -177.83)"/><path class="cls-1" d="M553,315.94l-4.6-14.1h2l2.2,6.93c.6,1.9,1.12,3.62,1.5,5.27h0c.4-1.62,1-3.41,1.62-5.25l2.39-7h1.94l-5,14.1Z" transform="translate(-491.99 -177.83)"/><path class="cls-1" d="M555.05,316.22h-2a.29.29,0,0,1-.27-.2l-4.6-14.09a.28.28,0,0,1,.18-.36l.09,0h2a.29.29,0,0,1,.28.2l2.19,6.94c.5,1.58.93,2.95,1.26,4.25.35-1.27.8-2.65,1.35-4.24l2.38-7a.29.29,0,0,1,.28-.2h1.94a.29.29,0,0,1,.27.39l-5,14.09a.28.28,0,0,1-.26.2Zm-1.8-.57h1.6l4.83-13.52h-1.33L556,308.9c-.69,2-1.23,3.68-1.6,5.22a.34.34,0,0,1-.44.17.35.35,0,0,1-.17-.17c-.36-1.59-.86-3.25-1.5-5.24l-2.13-6.74h-1.35Z" transform="translate(-491.99 -177.83)"/><path class="cls-1" d="M565.08,311.5l-1.47,4.44h-1.89l4.79-14.1h2.2l4.8,14.1h-1.94l-1.51-4.44Zm4.62-1.42L568.31,306c-.31-.93-.52-1.76-.73-2.58h0c-.21.84-.44,1.7-.71,2.55l-1.39,4.07Z" transform="translate(-491.99 -177.83)"/><path class="cls-1" d="M573.52,316.22h-1.94a.28.28,0,0,1-.28-.19l-1.44-4.24h-4.57l-1.4,4.24a.3.3,0,0,1-.28.19h-1.89a.28.28,0,0,1-.23-.12.27.27,0,0,1,0-.26l4.78-14.09a.29.29,0,0,1,.28-.2h2.19a.29.29,0,0,1,.27.19l4.81,14.1a.27.27,0,0,1,0,.26.27.27,0,0,1-.23.12Zm-1.74-.57h1.34l-4.62-13.52h-1.78l-4.59,13.52h1.26l1.4-4.24a.27.27,0,0,1,.28-.19h5a.25.25,0,0,1,.27.19Zm-2.08-5.28h-4.25a.29.29,0,0,1-.23-.12.27.27,0,0,1,0-.26l1.39-4.08c.23-.73.46-1.54.69-2.53a.33.33,0,0,1,.44-.16.31.31,0,0,1,.16.16l0,.14c.19.76.39,1.55.69,2.41L570,310a.27.27,0,0,1,0,.26.3.3,0,0,1-.25.12Zm-3.84-.58h3.44l-1.25-3.67c-.19-.56-.34-1.09-.48-1.6-.15.57-.3,1.09-.46,1.57Z" transform="translate(-491.99 -177.83)"/><path class="cls-1" d="M539.66,351.75a2.29,2.29,0,0,1-1.52-.57l-26.57-23.1a2.31,2.31,0,1,1,2.91-3.59l.12.1,26.57,23.11a2.31,2.31,0,0,1-1.51,4.05Z" transform="translate(-491.99 -177.83)"/><path class="cls-1" d="M898.17,554.5,859.88,483l-14,7.51,32,59.8h-74V534.45l-31.74,23.8,31.74,23.81V566.19h87.29a7.93,7.93,0,0,0,7-11.69Z" transform="translate(-491.99 -177.83)"/><path class="cls-1" d="M553.64,476.81,566.89,484l-5.69-38-34.86,16.1,13.78,7.43L492.9,557.66A7.68,7.68,0,0,0,499.67,569h99.84V553.61h-87l41.15-76.8Z" transform="translate(-491.99 -177.83)"/><path class="cls-1" d="M749.44,307.06l36.42,19.51,8.54-40.42-15.74,7.32L719,182.19a8.26,8.26,0,0,0-14.57,0l-48.69,90.88,14.58,7.81,41.39-77.3,51.9,96.86Z" transform="translate(-491.99 -177.83)"/></svg>