<svg id="Layer_2" data-name="Layer 2" xmlns="http://www.w3.org/2000/svg" xmlns:xlink="http://www.w3.org/1999/xlink" viewBox="0 0 307.31 284.19"><defs><style>.cls-1{fill:#61dafb;}.cls-2{fill:#5382a1;}.cls-3{fill:#e76f00;}.cls-4{fill:url(#radial-gradient);}.cls-5,.cls-6,.cls-7{stroke-miterlimit:10;}.cls-5,.cls-6{stroke-width:21.14px;}.cls-5{fill:url(#linear-gradient);stroke:url(#linear-gradient-2);}.cls-12,.cls-6{fill:none;}.cls-6{opacity:0.54;stroke:url(#linear-gradient-3);}.cls-6,.cls-8{isolation:isolate;}.cls-7{fill:#3465a4;stroke-width:1px;stroke:url(#linear-gradient-4);}.cls-8{opacity:0.49;fill:url(#linear-gradient-5);}.cls-9{fill:#204a87;}.cls-10{fill:#00546b;}.cls-11{fill:#f57900;}.cls-13{fill:#6e00ff;}</style><radialGradient id="radial-gradient" cx="-224.61" cy="664.04" r="2.34" gradientTransform="matrix(19.26, 0, 0, -10.83, 4694.81, 7581.15)" gradientUnits="userSpaceOnUse"><stop offset="0"/><stop offset="1" stop-opacity="0"/></radialGradient><linearGradient id="linear-gradient" x1="-225.84" y1="659.54" x2="-222.38" y2="659.54" gradientTransform="matrix(21.14, 0, 0, -21.14, 5107.86, 14308.61)" gradientUnits="userSpaceOnUse"><stop offset="0" stop-color="#729fcf"/><stop offset="0.32" stop-color="#babdb6"/><stop offset="1" stop-color="#3465a4"/></linearGradient><linearGradient id="linear-gradient-2" x1="387.72" y1="277.76" x2="488.23" y2="277.76" gradientTransform="matrix(0.9, 0, 0, -1.11, -25.23, 672.28)" gradientUnits="userSpaceOnUse"><stop offset="0" stop-color="#729fcf"/><stop offset="1" stop-color="#204a87"/></linearGradient><linearGradient id="linear-gradient-3" x1="-226.93" y1="665.31" x2="-217.6" y2="646.24" gradientTransform="matrix(21.14, 0, 0, -21.14, 5107.86, 14308.61)" gradientUnits="userSpaceOnUse"><stop offset="0" stop-color="#3977c3"/><stop offset="1" stop-color="#89aedc" stop-opacity="0"/></linearGradient><linearGradient id="linear-gradient-4" x1="-224.58" y1="661.14" x2="-224.58" y2="661.77" gradientTransform="matrix(21.93, 0, 0, -20.18, 5294.72, 13687.93)" gradientUnits="userSpaceOnUse"><stop offset="0" stop-color="#fff"/><stop offset="1" stop-color="#729fcf"/></linearGradient><linearGradient id="linear-gradient-5" x1="-224.78" y1="662.73" x2="-224.81" y2="661.46" gradientTransform="matrix(21.14, 0, 0, -21.14, 5104.84, 14364.49)" gradientUnits="userSpaceOnUse"><stop offset="0" stop-color="#fff"/><stop offset="1" stop-color="#fff" stop-opacity="0"/></linearGradient></defs><path class="cls-1" d="M523.56,231.77c0-8.23-10.32-16-26.14-20.88,3.65-16.12,2-28.95-5.12-33.06a11.11,11.11,0,0,0-5.67-1.42v5.66a5.91,5.91,0,0,1,2.89.66c3.44,2,4.94,9.5,3.77,19.18-.28,2.39-.73,4.9-1.29,7.46a122.46,122.46,0,0,0-16.1-2.77,124.18,124.18,0,0,0-10.54-12.67c8.26-7.68,16-11.89,21.29-11.89v-5.65h0c-7,0-16.09,5-25.32,13.59C452.1,181.41,443,176.49,436,176.49v5.65c5.24,0,13,4.19,21.29,11.82a118.6,118.6,0,0,0-10.47,12.64,118.93,118.93,0,0,0-16.12,2.79,72.8,72.8,0,0,1-1.32-7.35c-1.19-9.68.28-17.21,3.7-19.21a5.61,5.61,0,0,1,2.92-.66v-5.65h0a11.23,11.23,0,0,0-5.73,1.42c-7.13,4.1-8.72,16.9-5,33-15.76,4.87-26,12.65-26,20.86s10.32,16,26.13,20.89c-3.65,16.12-2,29,5.12,33.06a11.2,11.2,0,0,0,5.71,1.42c7,0,16.09-5,25.32-13.59,9.23,8.57,18.35,13.48,25.32,13.48a11.23,11.23,0,0,0,5.73-1.42c7.13-4.1,8.72-16.9,5.05-33C513.29,247.8,523.56,240,523.56,231.77Zm-33-16.9c-.94,3.27-2.11,6.64-3.43,10-1-2-2.13-4.06-3.32-6.08s-2.41-4-3.65-5.93Q485.56,213.67,490.56,214.87Zm-11.61,27c-2,3.43-4,6.67-6.11,9.69-3.78.33-7.61.5-11.46.5s-7.66-.17-11.41-.48c-2.1-3-4.15-6.23-6.13-9.63s-3.68-6.69-5.27-10.09c1.57-3.4,3.34-6.79,5.24-10.11s4-6.67,6.11-9.69c3.78-.33,7.61-.5,11.46-.5s7.65.17,11.41.48q3.15,4.53,6.13,9.63t5.27,10.09C482.6,235.15,480.85,238.54,479,241.86Zm8.18-3.29a106.28,106.28,0,0,1,3.5,10.09c-3.32.81-6.82,1.49-10.44,2,1.24-2,2.48-4,3.65-6S486.09,240.6,487.13,238.57Zm-25.7,27a104.2,104.2,0,0,1-7.05-8.11c2.28.1,4.62.18,7,.18s4.74-.05,7-.18A97.77,97.77,0,0,1,461.43,265.61Zm-18.86-14.93q-5.4-.8-10.39-2c.94-3.27,2.1-6.64,3.42-10,1,2,2.13,4.06,3.32,6.08S441.33,248.76,442.57,250.68Zm18.73-52.75a104.14,104.14,0,0,1,7.05,8.12c-2.28-.11-4.61-.18-7-.18s-4.74,0-7.05.18A99.63,99.63,0,0,1,461.3,197.93Zm-18.75,14.94c-1.25,1.95-2.49,3.95-3.65,6s-2.26,4.06-3.3,6.09c-1.37-3.4-2.53-6.8-3.5-10.09C435.42,214.08,438.92,213.4,442.55,212.87ZM419.61,244.6c-9-3.83-14.78-8.85-14.78-12.83s5.8-9,14.78-12.82c2.18-.94,4.56-1.78,7-2.56a120.63,120.63,0,0,0,5.7,15.44,119.9,119.9,0,0,0-5.63,15.36C424.19,246.4,421.81,245.54,419.61,244.6Zm13.63,36.22c-3.44-2-4.94-9.5-3.77-19.18a74.41,74.41,0,0,1,1.29-7.46A122.59,122.59,0,0,0,446.85,257a125.55,125.55,0,0,0,10.55,12.67c-8.26,7.68-16,11.89-21.29,11.89A6.14,6.14,0,0,1,433.24,280.82Zm60.13-19.31c1.19,9.68-.28,17.21-3.7,19.21a5.61,5.61,0,0,1-2.92.66c-5.24,0-13-4.18-21.29-11.81a119.76,119.76,0,0,0,10.47-12.65,118.93,118.93,0,0,0,16.12-2.79A72,72,0,0,1,493.37,261.51Zm9.76-16.91c-2.18.94-4.56,1.78-7,2.56a122.27,122.27,0,0,0-5.71-15.44A118.41,118.41,0,0,0,496,216.36c2.51.79,4.89,1.65,7.12,2.59,9,3.83,14.78,8.85,14.78,12.82S512.1,240.8,503.13,244.6Z" transform="translate(-216.25 -136.13)"/><path class="cls-1" d="M436,176.49Z" transform="translate(-216.25 -136.13)"/><circle class="cls-1" cx="245.11" cy="95.65" r="11.58"/><path class="cls-1" d="M486.6,176.41Z" transform="translate(-216.25 -136.13)"/><path class="cls-2" d="M247.54,238s-5,2.92,3.58,3.92c10.44,1.19,15.77,1,27.27-1.16a48.55,48.55,0,0,0,7.25,3.54c-25.78,11-58.36-.64-38.1-6.3" transform="translate(-216.25 -136.13)"/><path class="cls-2" d="M244.39,223.58s-5.65,4.18,3,5.07c11.15,1.15,20,1.24,35.19-1.69a15.7,15.7,0,0,0,5.43,3.3c-31.18,9.12-65.91.72-43.59-6.68" transform="translate(-216.25 -136.13)"/><path class="cls-3" d="M271,199.11c6.35,7.32-1.67,13.9-1.67,13.9s16.13-8.33,8.72-18.76c-6.92-9.72-12.22-14.56,16.5-31.22,0,0-45.09,11.27-23.55,36.08" transform="translate(-216.25 -136.13)"/><path class="cls-2" d="M305.05,248.66s3.73,3.07-4.1,5.45c-14.88,4.51-61.95,5.87-75,.18-4.7-2,4.11-4.88,6.88-5.48a17.73,17.73,0,0,1,4.55-.51c-5.23-3.68-33.79,7.23-14.51,10.35,52.58,8.53,95.84-3.83,82.2-10" transform="translate(-216.25 -136.13)"/><path class="cls-2" d="M250,208.63s-23.94,5.69-8.48,7.75c6.53.88,19.54.68,31.67-.33,9.9-.84,19.85-2.62,19.85-2.62a42.75,42.75,0,0,0-6,3.22c-24.31,6.4-71.27,3.42-57.75-3.12,11.43-5.52,20.73-4.9,20.73-4.9" transform="translate(-216.25 -136.13)"/><path class="cls-2" d="M292.9,232.64c24.72-12.84,13.29-25.18,5.31-23.52a18.87,18.87,0,0,0-2.82.76,4.45,4.45,0,0,1,2.11-1.63c15.78-5.55,27.91,16.36-5.09,25a2.21,2.21,0,0,0,.49-.65" transform="translate(-216.25 -136.13)"/><path class="cls-3" d="M278,136.13s13.69,13.69-13,34.74c-21.38,16.89-4.87,26.52,0,37.52-12.48-11.26-21.64-21.17-15.49-30.4,9-13.55,34-20.11,28.48-41.86" transform="translate(-216.25 -136.13)"/><path class="cls-2" d="M252.39,267.44c23.72,1.52,60.14-.85,61-12.07,0,0-1.66,4.26-19.61,7.63-20.24,3.81-45.22,3.37-60,.93,0,0,3,2.51,18.63,3.51" transform="translate(-216.25 -136.13)"/><g id="layer1"><g id="g24902"><path id="path3366-8" class="cls-4" d="M414.69,391.7c0,14-20.13,25.28-45,25.28s-45-11.32-45-25.28h0c0-14,20.13-25.28,45-25.28s45,11.32,45,25.28Z" transform="translate(-216.25 -136.13)"/><path id="path3068-5" class="cls-5" d="M369.22,318.48c-19.48,0-35.31,7.18-35.31,16v59.24c0,8.84,15.83,16,35.31,16s35.93-7.18,35.93-16V334.49c0-8.83-16.46-16-35.93-16Z" transform="translate(-216.25 -136.13)"/><path id="path4174-0" class="cls-6" d="M369.24,320.47c-18.16,0-32.92,6.7-32.92,14.93v56.69c0,8.23,14.76,14.93,32.92,14.93s33.5-6.7,33.5-14.93V335.4C402.74,327.17,387.39,320.47,369.24,320.47Z" transform="translate(-216.25 -136.13)"/><path id="path3364-7" class="cls-7" d="M402.41,334.27c0,7.43-14.79,13.45-33,13.45s-33-6-33-13.45,14.79-13.45,33-13.45S402.41,326.84,402.41,334.27Z" transform="translate(-216.25 -136.13)"/><path id="path6922-9" class="cls-8" d="M343.71,346.17l.89,43,11.32,3.29-.35-42.82s5.13,0,13.45-.55c-12.93-.59-27.71-6.34-32.74-10.06,3.51,5.36,7.43,7.14,7.43,7.14Z" transform="translate(-216.25 -136.13)"/><path id="path12-0" class="cls-9" d="M340.8,386.37h1.88v-7.73l2.95,6.74a1.91,1.91,0,0,0,3.47,0l2.92-6.74v7.73h1.9v-7.73a1.17,1.17,0,0,0-.89-1.3c-1.44-.45-2.4-.06-2.83.94l-2.89,6.66-2.78-6.66c-.42-1-1.4-1.39-2.85-.94a1.17,1.17,0,0,0-.88,1.3v7.73Z" transform="translate(-216.25 -136.13)"/><path id="path14-5" class="cls-9" d="M355.49,380.08h1.9v4.25c0,.24.07.78,1.1.79.54,0,4.09,0,4.12,0v-5.07h1.9V387c0,1.71-2,2.08-3,2.1h-6v-1.31h6c1.22-.13,1.08-.76,1.08-1v-.51h-4c-1.87,0-3.07-.87-3.09-1.85,0-.09,0-4.35,0-4.38Z" transform="translate(-216.25 -136.13)"/><path id="path16-3" class="cls-9" d="M396.24,375.16a6.48,6.48,0,0,0-2.81.42c-.22.09-.57.09-.59.38.11.12.13.31.23.48a3.47,3.47,0,0,0,.75.91c.31.24.61.48.93.69.57.36,1.2.57,1.75.93.32.21.64.48,1,.71.16.12.26.31.47.39V380c-.11-.13-.13-.33-.24-.48s-.29-.28-.43-.43a6.81,6.81,0,0,0-1.51-1.52c-.46-.33-1.48-.78-1.67-1.33l0,0a5.61,5.61,0,0,0,1-.24c.5-.14.95-.11,1.45-.24.24-.06.47-.14.7-.21v-.14c-.26-.27-.45-.63-.72-.88a19.64,19.64,0,0,0-2.4-1.85c-.45-.3-1-.49-1.51-.75-.17-.09-.46-.13-.56-.28a6.35,6.35,0,0,1-.6-1.16c-.42-.82-.82-1.74-1.19-2.61-.26-.58-.42-1.17-.73-1.71a14.82,14.82,0,0,0-5.62-5.6,6.71,6.71,0,0,0-1.85-.62c-.37,0-.73,0-1.09-.06a5.7,5.7,0,0,1-.67-.52c-.83-.54-3-1.71-3.57-.17-.39,1,.58,1.93.92,2.43a7.75,7.75,0,0,1,.74,1.12c.1.26.13.53.23.8a19.3,19.3,0,0,0,.75,2,8.65,8.65,0,0,0,.54.93c.12.16.32.24.36.51a4.3,4.3,0,0,0-.33,1.12,6.82,6.82,0,0,0,.42,5c.23.38.78,1.2,1.52.89s.51-1.13.7-1.88c0-.18,0-.3.1-.42v0c.2.42.41.83.59,1.25a8.62,8.62,0,0,0,1.89,2c.35.27.62.73,1.06.9v-.05h0a2.35,2.35,0,0,0-.33-.3,7.11,7.11,0,0,1-.76-.9,19.44,19.44,0,0,1-1.62-2.73c-.23-.46-.44-1-.63-1.44-.08-.18-.08-.45-.23-.54a5.7,5.7,0,0,0-.69,1,8.5,8.5,0,0,0-.41,2.27c-.06,0,0,0-.06,0-.46-.12-.62-.62-.8-1a6.78,6.78,0,0,1-.13-4c.11-.32.54-1.31.37-1.61s-.38-.45-.54-.67a6.39,6.39,0,0,1-.52-1c-.35-.84-.52-1.77-.9-2.61a7.69,7.69,0,0,0-.73-1.15,7.49,7.49,0,0,1-.79-1.17c-.08-.17-.18-.44-.06-.62a.22.22,0,0,1,.2-.19c.19-.17.73,0,.91.13a7.83,7.83,0,0,1,1.44.75c.2.15.42.44.68.51h.31c.46.1,1,0,1.42.17a8.85,8.85,0,0,1,2.09,1,13.08,13.08,0,0,1,4.52,5.13c.17.34.25.66.41,1,.3.73.68,1.48,1,2.2a10.26,10.26,0,0,0,1,2c.22.32,1.09.48,1.48.65a8.09,8.09,0,0,1,1,.42c.5.31,1,.67,1.45,1,.23.18,1,.55,1,.85Z" transform="translate(-216.25 -136.13)"/><path id="path18-4" class="cls-10" d="M381.45,362.13a2.38,2.38,0,0,0-.59.07v0h0a4,4,0,0,0,.46.62c.12.24.22.48.33.72l0,0a.87.87,0,0,0,.31-.75,2.58,2.58,0,0,1-.18-.32c-.08-.15-.27-.22-.39-.34Z" transform="translate(-216.25 -136.13)"/><path id="path20-1" class="cls-11" d="M366,386.37h5.45a4.09,4.09,0,0,0,1.75-.38,1.75,1.75,0,0,0,1.21-1.6V383c0-.56-.45-1.08-1.35-1.44a4.57,4.57,0,0,0-1.61-.29h-2.29c-.77,0-1.13-.24-1.23-.76a1.09,1.09,0,0,1,0-.18v-.89a1,1,0,0,1,0-.16c.1-.41.31-.51,1-.59h5.59v-1.3h-5.31a4.79,4.79,0,0,0-1.54.16c-1.12.36-1.61.93-1.61,1.94v1.14c0,.88,1,1.63,2.58,1.81a5,5,0,0,0,.55,0h2.16c.6.06.86.17,1,.39a.46.46,0,0,1,.15.36v1.14a.69.69,0,0,1-.26.47,1.37,1.37,0,0,1-.81.27H366v1.31Z" transform="translate(-216.25 -136.13)"/><path id="path22-0" class="cls-11" d="M386.18,384.1c0,1.34,1,2.09,2.91,2.24l.55,0h4.94v-1.31h-5c-1.1,0-1.52-.28-1.52-1v-6.75h-1.9v6.76Z" transform="translate(-216.25 -136.13)"/><path id="path24-4" class="cls-11" d="M375.58,384.16v-4.65c0-1.18.81-1.9,2.39-2.13l.51,0h3.59c.19,0,.35,0,.54,0,1.58.23,2.38.95,2.38,2.13v4.65a1.72,1.72,0,0,1-1.12,1.82l1.86,1.74h-2.19L382,386.31l-1.52.09h-2a4.46,4.46,0,0,1-1.1-.15c-1.21-.35-1.8-1-1.8-2.09Zm2-.1a.77.77,0,0,0,.05.19c.1.54.59.84,1.34.84h1.72l-1.57-1.47h2.19l1.38,1.29a1,1,0,0,0,.48-.63,1.21,1.21,0,0,0,0-.19v-4.46a1.09,1.09,0,0,0,0-.18c-.11-.51-.6-.79-1.34-.79H379c-.84,0-1.39.37-1.39,1v4.43Z" transform="translate(-216.25 -136.13)"/><path id="path26-8" class="cls-11" d="M395.45,386.38h.27v-1.09h.36v-.23h-1v.23h.38v1.09Zm2.1,0h.26v-1.32h-.39l-.32.9-.35-.9h-.38v1.32h.25v-1h0l.36,1h.19l.36-1v1Z" transform="translate(-216.25 -136.13)"/><rect id="rect2300" class="cls-12" x="103.57" y="179.26" width="99.6" height="103"/></g></g><path class="cls-13" d="M428.76,389.46c7.59-3.34,15.2-6.67,22.22-11a103.66,103.66,0,0,0,19.63-14.69c1.42-1.46,2.77-3,4.15-4.44s2.49-3.18,3.74-4.76c1.05-1.71,2.21-3.36,3.17-5.11l1.35-2.67c.22-.45.47-.88.66-1.34l.55-1.39,1.08-2.78.81-2.85.42-1.42.29-1.45.6-2.9a73.87,73.87,0,0,0,.81-11.81l4.85-.3a51.12,51.12,0,0,1-.57,13c-.23,1.06-.49,2.13-.75,3.18l-.4,1.58-.54,1.55-1.1,3.07-1.37,2.95-.68,1.47c-.23.49-.53.94-.79,1.42l-1.62,2.8a10.69,10.69,0,0,1-.87,1.35l-.94,1.31-1.85,2.63c-1.4,1.62-2.75,3.28-4.18,4.85s-3,3-4.56,4.45A99,99,0,0,1,452,380.25a165.68,165.68,0,0,1-23,9.68Z" transform="translate(-216.25 -136.13)"/><path class="cls-13" d="M481.54,291.94c9,12.15,22.6,26.54,34.8,34.36l-25.24-1.59-20.41,14.91C476.77,326.47,480.46,307,481.54,291.94Z" transform="translate(-216.25 -136.13)"/><path class="cls-13" d="M435.13,169.21c-4.2-2.74-8.42-5.43-12.81-7.84-2.16-1.26-4.41-2.35-6.62-3.5-1.12-.55-2.26-1.06-3.39-1.59s-2.27-1-3.42-1.5a95.32,95.32,0,0,0-28.58-7.54,65,65,0,0,0-28.76,3.65,87.48,87.48,0,0,0-24.88,14.85l-3.06-3.38a65.36,65.36,0,0,1,26.41-16,71.82,71.82,0,0,1,30.66-2.55,88.11,88.11,0,0,1,14.95,3.34c2.44.74,4.81,1.65,7.19,2.54s4.67,2,6.94,3.11c1.15.54,2.28,1.1,3.39,1.7s2.25,1.18,3.35,1.79c2.18,1.27,4.39,2.49,6.51,3.87,4.3,2.63,8.37,5.61,12.41,8.6Z" transform="translate(-216.25 -136.13)"/><path class="cls-13" d="M306.48,187.77c4.86-14.34,9-33.69,8.48-48.17l13,21.67,23.88,8.31C337.6,172.06,319.52,180.06,306.48,187.77Z" transform="translate(-216.25 -136.13)"/><path class="cls-13" d="M239.44,275.13a163,163,0,0,0-.36,27.32,95.6,95.6,0,0,0,5.63,26.37,59.55,59.55,0,0,0,14.44,22.07,64.9,64.9,0,0,0,10.49,7.9c1.85,1.18,3.8,2.19,5.75,3.21s4,1.89,6,2.72l-1.59,4.42a59,59,0,0,1-12.94-5.91,55.83,55.83,0,0,1-11-9.06A65.71,65.71,0,0,1,241.56,330a84.4,84.4,0,0,1-3.3-13.57A97.53,97.53,0,0,1,237,302.56a153,153,0,0,1,1.94-27.49Z" transform="translate(-216.25 -136.13)"/><path class="cls-13" d="M310.48,371.37c-14.88,2.84-33.74,8.79-46.09,16.38l12.42-22-4.54-24.87C281.46,352,297.35,363.83,310.48,371.37Z" transform="translate(-216.25 -136.13)"/></svg>